<svg width="20" height="20" viewBox="0 0 20 20" fill="none" xmlns="http://www.w3.org/2000/svg">
<path d="M17.1856 15.1278C16.9163 15.75 16.5975 16.3227 16.2282 16.8492C15.7248 17.567 15.3125 18.0639 14.9949 18.3398C14.5024 18.7927 13.9748 19.0246 13.4098 19.0378C13.0042 19.0378 12.515 18.9224 11.9456 18.6882C11.3744 18.4552 10.8494 18.3398 10.3693 18.3398C9.8659 18.3398 9.32596 18.4552 8.74843 18.6882C8.17001 18.9224 7.70405 19.0444 7.34779 19.0565C6.80599 19.0795 6.26594 18.841 5.72688 18.3398C5.38282 18.0397 4.95248 17.5252 4.43694 16.7965C3.88381 16.0182 3.42906 15.1157 3.07281 14.0869C2.69126 12.9755 2.5 11.8994 2.5 10.8576C2.5 9.66413 2.75788 8.63482 3.2744 7.77226C3.68035 7.07941 4.22039 6.53288 4.89631 6.13166C5.57222 5.73044 6.30254 5.52599 7.08904 5.51291C7.51938 5.51291 8.08372 5.64602 8.78503 5.90764C9.48435 6.17014 9.93339 6.30325 10.1303 6.30325C10.2774 6.30325 10.7763 6.1476 11.6219 5.83729C12.4216 5.54951 13.0965 5.43036 13.6494 5.47729C15.1477 5.59821 16.2733 6.18882 17.0218 7.25287C15.6819 8.06476 15.0191 9.20191 15.0322 10.6607C15.0443 11.797 15.4565 12.7425 16.2667 13.4933C16.6338 13.8417 17.0438 14.111 17.5 14.3023C17.4011 14.5892 17.2966 14.864 17.1856 15.1278ZM13.7495 1.60626C13.7495 2.49686 13.4241 3.32842 12.7755 4.09809C11.9929 5.01309 11.0462 5.54182 10.0197 5.45839C10.0066 5.35154 9.99901 5.23909 9.99901 5.12092C9.99901 4.26595 10.3712 3.35095 11.0322 2.60282C11.3622 2.22403 11.7818 1.90906 12.2908 1.65781C12.7986 1.41031 13.279 1.27344 13.7308 1.25C13.744 1.36906 13.7495 1.48813 13.7495 1.60625V1.60626Z" fill="#111928"/>
</svg>
